<svg xmlns="http://www.w3.org/2000/svg" viewBox="0 0 400 300" width="406" height="306"
    class="illustration styles_illustrationTablet__1DWOa">
    <g id="_65_gaming_outline" data-name="#65_gaming_outline">
        <path d="M293,150a93,93,0,0,1-168.55,54.25s0,0,0,0A93,93,0,1,1,293,150Z" fill="#fff"></path>
        <path
            d="M200,244a93.14,93.14,0,0,1-39.9-8.86,94.54,94.54,0,0,1-36.46-30.31l-.06-.09a94,94,0,1,1,152.78.08,94.44,94.44,0,0,1-36.47,30.32A93.06,93.06,0,0,1,200,244Zm-74.68-40.25A92.46,92.46,0,0,0,161,233.32a92.14,92.14,0,0,0,78.08,0,92.41,92.41,0,0,0,35.7-29.66,92,92,0,1,0-149.48,0h0Z"
            fill="#093f68"></path>
        <rect x="166.55" y="128.83" width="75.62" height="46.8" fill="#68e1fd"></rect>
        <path
            d="M242.18,176.63H166.55a1,1,0,0,1-1-1v-46.8a1,1,0,0,1,1-1h75.63a1,1,0,0,1,1,1v46.8A1,1,0,0,1,242.18,176.63Zm-74.63-2h73.63v-44.8H167.55Z"
            fill="#093f68"></path>
        <path d="M139.54,141.53s-8.18,39.53-8.48,50.49,15,17.17,22.36,8.29S180.28,154,180.28,154Z"
            fill="#68e1fd"></path>
        <path
            d="M144.34,205.56a14.92,14.92,0,0,1-5.24-1c-5.64-2.13-9.19-7.07-9-12.59.29-10.92,8.17-49.05,8.5-50.66a1,1,0,0,1,.47-.66,1,1,0,0,1,.8-.1L180.58,153a1,1,0,0,1,.63.57,1,1,0,0,1,0,.85c-.8,1.53-19.59,37.64-27,46.51A12.61,12.61,0,0,1,144.34,205.56Zm-4-62.75c-1.31,6.4-8,39.49-8.24,49.23-.12,4.66,2.92,8.84,7.75,10.67,3.79,1.43,9.16,1.38,12.84-3,6.56-7.87,23-38.92,26.19-45.09Z"
            fill="#093f68"></path>
        <path
            d="M153.07,118H167.4a4.28,4.28,0,0,1,4.28,4.28v11.12a0,0,0,0,1,0,0h-22.9a0,0,0,0,1,0,0V122.26A4.28,4.28,0,0,1,153.07,118Z"
            fill="#ffbc0e"></path>
        <path
            d="M171.69,134.37H148.78a1,1,0,0,1-1-1V122.26a5.29,5.29,0,0,1,5.29-5.29H167.4a5.29,5.29,0,0,1,5.29,5.29v11.11A1,1,0,0,1,171.69,134.37Zm-21.91-2h20.91V122.26A3.3,3.3,0,0,0,167.4,119H153.07a3.3,3.3,0,0,0-3.29,3.29Z"
            fill="#093f68"></path>
        <circle cx="160.23" cy="146.7" r="21.32" fill="#68e1fd"></circle>
        <path
            d="M160.23,169a22.33,22.33,0,1,1,22.33-22.33A22.35,22.35,0,0,1,160.23,169Zm0-42.65a20.33,20.33,0,1,0,20.33,20.32A20.34,20.34,0,0,0,160.23,126.38Z"
            fill="#093f68"></path>
        <circle cx="180.28" cy="168.03" r="13.39" fill="#f56132"></circle>
        <path
            d="M180.28,182.42A14.39,14.39,0,1,1,194.67,168,14.41,14.41,0,0,1,180.28,182.42Zm0-26.78A12.39,12.39,0,1,0,192.67,168,12.4,12.4,0,0,0,180.28,155.64Z"
            fill="#093f68"></path>
        <circle cx="180.28" cy="168.03" r="9.02" fill="#093f68"></circle>
        <path
            d="M180.28,178.05a10,10,0,1,1,10-10A10,10,0,0,1,180.28,178.05Zm0-18a8,8,0,1,0,8,8A8,8,0,0,0,180.28,160Z"
            fill="#093f68"></path>
        <polygon
            points="165 140.11 160.23 144.91 155.47 140.11 155.47 133.23 160.23 132.62 165 133.23 165 140.11"
            fill="#093f68"></polygon>
        <polygon
            points="165 153.3 160.23 148.49 155.47 153.3 155.47 160.18 160.23 160.78 165 160.18 165 153.3"
            fill="#093f68"></polygon>
        <polygon
            points="166.83 151.47 162.03 146.7 166.83 141.94 173.71 141.94 174.31 146.7 173.71 151.47 166.83 151.47"
            fill="#093f68"></polygon>
        <polygon
            points="153.64 151.47 158.44 146.7 153.64 141.94 146.76 141.94 146.16 146.7 146.76 151.47 153.64 151.47"
            fill="#093f68"></polygon>
        <path d="M260.92,141.53s8.18,39.53,8.48,50.49-15,17.17-22.36,8.29S220.17,154,220.17,154Z"
            fill="#68e1fd"></path>
        <path
            d="M256.12,205.56a12.61,12.61,0,0,1-9.85-4.61c-7.39-8.87-26.19-45-27-46.51a1,1,0,0,1,0-.85,1,1,0,0,1,.63-.57l40.74-12.45a1,1,0,0,1,.8.1.94.94,0,0,1,.47.66c.34,1.61,8.21,39.74,8.51,50.66.14,5.52-3.4,10.46-9,12.59A14.92,14.92,0,0,1,256.12,205.56Zm-34.5-51c3.23,6.17,19.63,37.22,26.18,45.09,3.69,4.42,9.06,4.47,12.85,3,4.83-1.83,7.87-6,7.75-10.67-.26-9.74-6.94-42.83-8.24-49.23Z"
            fill="#093f68"></path>
        <path
            d="M228.77,118h22.9a0,0,0,0,1,0,0v11.12a4.28,4.28,0,0,1-4.28,4.28H233.06a4.28,4.28,0,0,1-4.28-4.28V118a0,0,0,0,1,0,0Z"
            transform="translate(480.45 251.35) rotate(-180)" fill="#ffbc0e"></path>
        <path
            d="M251.68,134.37H228.77a1,1,0,0,1-1-1V122.26a5.29,5.29,0,0,1,5.29-5.29h14.33a5.29,5.29,0,0,1,5.29,5.29v11.11A1,1,0,0,1,251.68,134.37Zm-21.91-2h20.91V122.26a3.3,3.3,0,0,0-3.29-3.29H233.06a3.3,3.3,0,0,0-3.29,3.29Z"
            fill="#093f68"></path>
        <circle cx="240.22" cy="146.7" r="21.32" fill="#68e1fd"></circle>
        <path
            d="M240.22,169a22.33,22.33,0,1,1,22.33-22.33A22.35,22.35,0,0,1,240.22,169Zm0-42.65a20.33,20.33,0,1,0,20.33,20.32A20.34,20.34,0,0,0,240.22,126.38Z"
            fill="#093f68"></path>
        <circle cx="220.17" cy="168.03" r="13.39" fill="#f56132"></circle>
        <path
            d="M220.17,182.42A14.39,14.39,0,1,1,234.57,168,14.41,14.41,0,0,1,220.17,182.42Zm0-26.78A12.39,12.39,0,1,0,232.57,168,12.4,12.4,0,0,0,220.17,155.64Z"
            fill="#093f68"></path>
        <circle cx="220.17" cy="168.03" r="9.02" fill="#093f68"></circle>
        <path
            d="M220.17,178.05a10,10,0,1,1,10-10A10,10,0,0,1,220.17,178.05Zm0-18a8,8,0,1,0,8,8A8,8,0,0,0,220.17,160Z"
            fill="#093f68"></path>
        <circle cx="231.44" cy="146.7" r="4.77" fill="#093f68"></circle>
        <circle cx="248.16" cy="146.7" r="4.77" fill="#093f68"></circle>
        <circle cx="239.8" cy="138.34" r="4.77" fill="#093f68"></circle>
        <circle cx="239.8" cy="155.06" r="4.77" fill="#093f68"></circle>
        <path d="M197.55,144.44h-9.08a1,1,0,1,1,0-2h9.08a1,1,0,0,1,0,2Z" fill="#093f68"></path>
        <path d="M213.45,144.44h-9.09a1,1,0,0,1,0-2h9.09a1,1,0,0,1,0,2Z" fill="#093f68"></path>
        <path
            d="M184.47,175.63a2.44,2.44,0,0,1-.14.28l-.11.24-2.34,5.17-21.35,52.91a93.38,93.38,0,0,1-36.08-30s0,0,0,0c-.51-9.27-1-19.24-1.1-24.19-.25-16.27,1-26.19,4.09-28.71a7.21,7.21,0,0,1,10,.8l.17.2s2,15.6,6.7,23.92c2.38,4.18,10.61,7.68,18.21,10.11l.27.09c0-.15.84-1.74,1.94-3.91l0-.05c1-2,2.33-4.56,3.51-6.87l.46-.87c1.19-2.33,2.22-4.33,2.67-5.22l.26-.49a6.46,6.46,0,0,1,1.68-2,7.17,7.17,0,0,1,11.15,8.56Z"
            fill="#ffc9b0"></path>
        <path
            d="M160.53,235.23a1,1,0,0,1-.42-.09,94.5,94.5,0,0,1-36.47-30.31,1,1,0,0,1-.19-.56c-.68-12.43-1-20.12-1.1-24.2-.35-22.89,2.37-27.8,4.46-29.5a8.15,8.15,0,0,1,11.36.91l.12.14a1.35,1.35,0,0,1,.29.6c0,.15,2,15.5,6.58,23.54,1.79,3.15,7.69,6.42,17.08,9.48.28-.58.76-1.53,1.58-3.14a.41.41,0,0,1,.05-.09c.66-1.31,1.43-2.82,2.21-4.34l3.15-6.11c.55-1.09,1-2,1.26-2.47l.27-.51a7.34,7.34,0,0,1,1.94-2.29,8.66,8.66,0,0,1,9.2-1c3.22,1.77,5.39,6.75,3.48,10.77a4,4,0,0,1-.17.36l-2.42,5.34L161.46,234.6a1,1,0,0,1-.56.56A1,1,0,0,1,160.53,235.23Zm-35.1-31.33a92.58,92.58,0,0,0,34.57,29L181,181l2.47-5.46a1.29,1.29,0,0,0,.12-.23l0-.06a6.17,6.17,0,0,0-9.62-7.35,5.43,5.43,0,0,0-1.43,1.68l-.26.48c-.25.49-.69,1.37-1.25,2.46l-3.15,6.11c-.78,1.54-1.56,3.06-2.23,4.37a.41.41,0,0,1,0,.09c-.54,1.08-1.75,3.46-1.87,3.76a.92.92,0,0,1-.48.58.94.94,0,0,1-.77,0l-.27-.09c-10.34-3.31-16.66-6.86-18.77-10.57-4.47-7.85-6.48-21.71-6.78-24a6.2,6.2,0,0,0-8.57-.65c-1.87,1.54-4,7.62-3.72,27.92C124.42,184.06,124.76,191.65,125.43,203.9Z"
            fill="#093f68"></path>
        <path
            d="M276.65,180.05c-.08,4.95-.59,14.92-1.1,24.19a93.34,93.34,0,0,1-36.08,30l-21.38-53-2.42-5.35,0-.09-.09-.19a7.2,7.2,0,0,1,12.14-7.6,6.08,6.08,0,0,1,.69,1l.58,1.13,1.62,3.13a0,0,0,0,0,0,0l.94,1.82a5.21,5.21,0,0,0,.24.47c2.47,4.81,5.4,10.54,5.48,10.83l.66-.22c7.49-2.42,15.48-5.87,17.82-10,4.74-8.32,6.7-23.92,6.7-23.92a7.82,7.82,0,0,1,.55-.6,7.21,7.21,0,0,1,9.6-.4C275.64,153.86,276.9,163.78,276.65,180.05Z"
            fill="#ffc9b0"></path>
        <path
            d="M239.47,235.23a1,1,0,0,1-.37-.07,1,1,0,0,1-.56-.56l-21.38-53-2.38-5.27,0-.05c-.06-.12-.1-.19-.14-.28-1.9-4,.26-9,3.49-10.77a8.75,8.75,0,0,1,10.34,2.13,7.41,7.41,0,0,1,.8,1.18s.23.44.59,1.16l1.62,3.12a1,1,0,0,1,0,.1c.28.55.59,1.14.91,1.75a4.48,4.48,0,0,0,.22.44c3.23,6.29,4.57,8.94,5.14,10.09,9.4-3.06,15.29-6.32,17.08-9.46,4.59-8.06,6.56-23.4,6.58-23.55a1,1,0,0,1,.21-.51c.2-.24.41-.46.62-.68a8.2,8.2,0,0,1,10.94-.46c2.09,1.7,4.81,6.61,4.46,29.49h0c-.07,4.08-.42,11.78-1.1,24.23a1,1,0,0,1-.19.52,94.44,94.44,0,0,1-36.47,30.32A1,1,0,0,1,239.47,235.23Zm-23-59.87,0,.06,2.46,5.43,21,52a92.55,92.55,0,0,0,34.57-29c.67-12.25,1-19.83,1.08-23.86h0c.31-20.3-1.85-26.38-3.72-27.92a6.2,6.2,0,0,0-8.27.35c-.1.09-.2.2-.3.3-.3,2.28-2.31,16.14-6.78,24-2.08,3.66-8.27,7.17-18.38,10.44l-.67.22a1,1,0,0,1-.78-.07,1,1,0,0,1-.48-.61c-.1-.22-1.13-2.31-5.41-10.64-.09-.16-.18-.34-.27-.53-.3-.57-.62-1.19-.91-1.77h0l0-.07-1.6-3.08-.58-1.13a5.18,5.18,0,0,0-.57-.84,6.2,6.2,0,0,0-10.47,6.53Zm60.14,4.69h0Z"
            fill="#093f68"></path>
        <path
            d="M202,129.83a1,1,0,0,1-.6-1.8c.06,0,5.87-4.45,6.1-10.62.14-3.88-1.93-7.69-6.15-11.35-9.29-8-14.75-20.87-13.59-31.94a22.39,22.39,0,0,1,11.78-18,1,1,0,1,1,1,1.76,20.5,20.5,0,0,0-10.75,16.45c-1.09,10.45,4.1,22.6,12.9,30.22,4.71,4.08,7,8.43,6.85,13-.27,7.14-6.63,11.94-6.9,12.14A1,1,0,0,1,202,129.83Z"
            fill="#093f68"></path>
    </g>
</svg>